{
  "asset": {
    "version": "2.0",
    "generator": "Sanatorio 3D Flashlight Engine Generator"
  },
  "scene": 0,
  "scenes": [
    {
      "name": "Flashlight_Scene",
      "nodes": [
        0
      ]
    }
  ],
  "nodes": [
    {
      "name": "Flashlight_Root",
      "children": [
        1,
        2
      ]
    },
    {
      "name": "Flashlight_Main_Casing",
      "mesh": 0
    },
    {
      "name": "Flashlight_Toggle_Switch",
      "mesh": 1,
      "translation": [
        0.0,
        0.0,
        0.012
      ]
    }
  ],
  "meshes": [
    {
      "name": "Mesh_Flashlight_Body",
      "primitives": [
        {
          "attributes": {
            "POSITION": 0,
            "NORMAL": 1,
            "TEXCOORD_0": 2
          },
          "indices": 3,
          "material": 0
        },
        {
          "attributes": {
            "POSITION": 4,
            "NORMAL": 5,
            "TEXCOORD_0": 6
          },
          "indices": 7,
          "material": 1
        },
        {
          "attributes": {
            "POSITION": 8,
            "NORMAL": 9,
            "TEXCOORD_0": 10
          },
          "indices": 11,
          "material": 2
        },
        {
          "attributes": {
            "POSITION": 12,
            "NORMAL": 13,
            "TEXCOORD_0": 14
          },
          "indices": 15,
          "material": 2
        },
        {
          "attributes": {
            "POSITION": 16,
            "NORMAL": 17,
            "TEXCOORD_0": 18
          },
          "indices": 19,
          "material": 3
        },
        {
          "attributes": {
            "POSITION": 20,
            "NORMAL": 21,
            "TEXCOORD_0": 22
          },
          "indices": 23,
          "material": 6
        }
      ]
    },
    {
      "name": "Mesh_Flashlight_Switch",
      "primitives": [
        {
          "attributes": {
            "POSITION": 24,
            "NORMAL": 25,
            "TEXCOORD_0": 26
          },
          "indices": 27,
          "material": 4
        }
      ]
    }
  ],
  "materials": [
    {
      "name": "Mat_Flashlight_Body",
      "pbrMetallicRoughness": {
        "baseColorFactor": [
          0.22,
          0.24,
          0.27,
          1.0
        ],
        "metallicFactor": 0.65,
        "roughnessFactor": 0.45
      }
    },
    {
      "name": "Mat_Rubber_Grip",
      "pbrMetallicRoughness": {
        "baseColorFactor": [
          0.07,
          0.07,
          0.08,
          1.0
        ],
        "metallicFactor": 0.05,
        "roughnessFactor": 0.85
      }
    },
    {
      "name": "Mat_Head_Bezel",
      "pbrMetallicRoughness": {
        "baseColorFactor": [
          0.32,
          0.34,
          0.38,
          1.0
        ],
        "metallicFactor": 0.7,
        "roughnessFactor": 0.3
      }
    },
    {
      "name": "Mat_Chrome_Reflector",
      "pbrMetallicRoughness": {
        "baseColorFactor": [
          0.92,
          0.93,
          0.96,
          1.0
        ],
        "metallicFactor": 0.95,
        "roughnessFactor": 0.08
      }
    },
    {
      "name": "Mat_Switch_Knob",
      "pbrMetallicRoughness": {
        "baseColorFactor": [
          0.88,
          0.36,
          0.05,
          1.0
        ],
        "metallicFactor": 0.15,
        "roughnessFactor": 0.5
      }
    },
    {
      "name": "Mat_Bulb_Emissive_On",
      "pbrMetallicRoughness": {
        "baseColorFactor": [
          1.0,
          0.95,
          0.65,
          1.0
        ],
        "metallicFactor": 0.1,
        "roughnessFactor": 0.2
      },
      "emissiveFactor": [
        1.0,
        0.9,
        0.5
      ]
    },
    {
      "name": "Mat_Glass_Lens",
      "pbrMetallicRoughness": {
        "baseColorFactor": [
          0.85,
          0.92,
          1.0,
          0.35
        ],
        "metallicFactor": 0.1,
        "roughnessFactor": 0.05
      },
      "alphaMode": "BLEND"
    }
  ],
  "animations": [
    {
      "name": "Switch_Toggle_Animation",
      "samplers": [
        {
          "input": 28,
          "interpolation": "LINEAR",
          "output": 29
        }
      ],
      "channels": [
        {
          "sampler": 0,
          "target": {
            "node": 2,
            "path": "translation"
          }
        }
      ]
    }
  ],
  "accessors": [
    {
      "bufferView": 0,
      "byteOffset": 0,
      "componentType": 5126,
      "count": 32,
      "type": "VEC3",
      "min": [
        -0.024,
        -0.024,
        -0.14
      ],
      "max": [
        0.024,
        0.024,
        0.04
      ]
    },
    {
      "bufferView": 1,
      "byteOffset": 0,
      "componentType": 5126,
      "count": 32,
      "type": "VEC3"
    },
    {
      "bufferView": 2,
      "byteOffset": 0,
      "componentType": 5126,
      "count": 32,
      "type": "VEC2"
    },
    {
      "bufferView": 3,
      "byteOffset": 0,
      "componentType": 5123,
      "count": 96,
      "type": "SCALAR"
    },
    {
      "bufferView": 4,
      "byteOffset": 0,
      "componentType": 5126,
      "count": 32,
      "type": "VEC3",
      "min": [
        -0.027,
        -0.027,
        -0.09
      ],
      "max": [
        0.027,
        0.027,
        -0.03
      ]
    },
    {
      "bufferView": 5,
      "byteOffset": 0,
      "componentType": 5126,
      "count": 32,
      "type": "VEC3"
    },
    {
      "bufferView": 6,
      "byteOffset": 0,
      "componentType": 5126,
      "count": 32,
      "type": "VEC2"
    },
    {
      "bufferView": 7,
      "byteOffset": 0,
      "componentType": 5123,
      "count": 96,
      "type": "SCALAR"
    },
    {
      "bufferView": 8,
      "byteOffset": 0,
      "componentType": 5126,
      "count": 32,
      "type": "VEC3",
      "min": [
        -0.046,
        -0.046,
        0.04
      ],
      "max": [
        0.046,
        0.046,
        0.085
      ]
    },
    {
      "bufferView": 9,
      "byteOffset": 0,
      "componentType": 5126,
      "count": 32,
      "type": "VEC3"
    },
    {
      "bufferView": 10,
      "byteOffset": 0,
      "componentType": 5126,
      "count": 32,
      "type": "VEC2"
    },
    {
      "bufferView": 11,
      "byteOffset": 0,
      "componentType": 5123,
      "count": 96,
      "type": "SCALAR"
    },
    {
      "bufferView": 12,
      "byteOffset": 0,
      "componentType": 5126,
      "count": 32,
      "type": "VEC3",
      "min": [
        -0.046,
        -0.046,
        0.085
      ],
      "max": [
        0.046,
        0.046,
        0.102
      ]
    },
    {
      "bufferView": 13,
      "byteOffset": 0,
      "componentType": 5126,
      "count": 32,
      "type": "VEC3"
    },
    {
      "bufferView": 14,
      "byteOffset": 0,
      "componentType": 5126,
      "count": 32,
      "type": "VEC2"
    },
    {
      "bufferView": 15,
      "byteOffset": 0,
      "componentType": 5123,
      "count": 96,
      "type": "SCALAR"
    },
    {
      "bufferView": 16,
      "byteOffset": 0,
      "componentType": 5126,
      "count": 32,
      "type": "VEC3",
      "min": [
        -0.043,
        -0.043,
        0.065
      ],
      "max": [
        0.043,
        0.043,
        0.098
      ]
    },
    {
      "bufferView": 17,
      "byteOffset": 0,
      "componentType": 5126,
      "count": 32,
      "type": "VEC3"
    },
    {
      "bufferView": 18,
      "byteOffset": 0,
      "componentType": 5126,
      "count": 32,
      "type": "VEC2"
    },
    {
      "bufferView": 19,
      "byteOffset": 0,
      "componentType": 5123,
      "count": 96,
      "type": "SCALAR"
    },
    {
      "bufferView": 20,
      "byteOffset": 0,
      "componentType": 5126,
      "count": 24,
      "type": "VEC3",
      "min": [
        -0.043,
        -0.043,
        0.1
      ],
      "max": [
        0.043,
        0.043,
        0.1
      ]
    },
    {
      "bufferView": 21,
      "byteOffset": 0,
      "componentType": 5126,
      "count": 24,
      "type": "VEC3"
    },
    {
      "bufferView": 22,
      "byteOffset": 0,
      "componentType": 5126,
      "count": 24,
      "type": "VEC2"
    },
    {
      "bufferView": 23,
      "byteOffset": 0,
      "componentType": 5123,
      "count": 72,
      "type": "SCALAR"
    },
    {
      "bufferView": 24,
      "byteOffset": 0,
      "componentType": 5126,
      "count": 8,
      "type": "VEC3",
      "min": [
        -0.004,
        0.024,
        -0.008
      ],
      "max": [
        0.004,
        0.029,
        0.008
      ]
    },
    {
      "bufferView": 25,
      "byteOffset": 0,
      "componentType": 5126,
      "count": 8,
      "type": "VEC3"
    },
    {
      "bufferView": 26,
      "byteOffset": 0,
      "componentType": 5126,
      "count": 8,
      "type": "VEC2"
    },
    {
      "bufferView": 27,
      "byteOffset": 0,
      "componentType": 5123,
      "count": 36,
      "type": "SCALAR"
    },
    {
      "bufferView": 28,
      "byteOffset": 0,
      "componentType": 5126,
      "count": 3,
      "type": "SCALAR",
      "min": [
        0.0
      ],
      "max": [
        1.0
      ]
    },
    {
      "bufferView": 29,
      "byteOffset": 0,
      "componentType": 5126,
      "count": 3,
      "type": "VEC3"
    }
  ],
  "bufferViews": [
    {
      "buffer": 0,
      "byteOffset": 0,
      "byteLength": 384,
      "target": 34962
    },
    {
      "buffer": 0,
      "byteOffset": 384,
      "byteLength": 384,
      "target": 34962
    },
    {
      "buffer": 0,
      "byteOffset": 768,
      "byteLength": 256,
      "target": 34962
    },
    {
      "buffer": 0,
      "byteOffset": 1024,
      "byteLength": 192,
      "target": 34963
    },
    {
      "buffer": 0,
      "byteOffset": 1216,
      "byteLength": 384,
      "target": 34962
    },
    {
      "buffer": 0,
      "byteOffset": 1600,
      "byteLength": 384,
      "target": 34962
    },
    {
      "buffer": 0,
      "byteOffset": 1984,
      "byteLength": 256,
      "target": 34962
    },
    {
      "buffer": 0,
      "byteOffset": 2240,
      "byteLength": 192,
      "target": 34963
    },
    {
      "buffer": 0,
      "byteOffset": 2432,
      "byteLength": 384,
      "target": 34962
    },
    {
      "buffer": 0,
      "byteOffset": 2816,
      "byteLength": 384,
      "target": 34962
    },
    {
      "buffer": 0,
      "byteOffset": 3200,
      "byteLength": 256,
      "target": 34962
    },
    {
      "buffer": 0,
      "byteOffset": 3456,
      "byteLength": 192,
      "target": 34963
    },
    {
      "buffer": 0,
      "byteOffset": 3648,
      "byteLength": 384,
      "target": 34962
    },
    {
      "buffer": 0,
      "byteOffset": 4032,
      "byteLength": 384,
      "target": 34962
    },
    {
      "buffer": 0,
      "byteOffset": 4416,
      "byteLength": 256,
      "target": 34962
    },
    {
      "buffer": 0,
      "byteOffset": 4672,
      "byteLength": 192,
      "target": 34963
    },
    {
      "buffer": 0,
      "byteOffset": 4864,
      "byteLength": 384,
      "target": 34962
    },
    {
      "buffer": 0,
      "byteOffset": 5248,
      "byteLength": 384,
      "target": 34962
    },
    {
      "buffer": 0,
      "byteOffset": 5632,
      "byteLength": 256,
      "target": 34962
    },
    {
      "buffer": 0,
      "byteOffset": 5888,
      "byteLength": 192,
      "target": 34963
    },
    {
      "buffer": 0,
      "byteOffset": 6080,
      "byteLength": 288,
      "target": 34962
    },
    {
      "buffer": 0,
      "byteOffset": 6368,
      "byteLength": 288,
      "target": 34962
    },
    {
      "buffer": 0,
      "byteOffset": 6656,
      "byteLength": 192,
      "target": 34962
    },
    {
      "buffer": 0,
      "byteOffset": 6848,
      "byteLength": 144,
      "target": 34963
    },
    {
      "buffer": 0,
      "byteOffset": 6992,
      "byteLength": 96,
      "target": 34962
    },
    {
      "buffer": 0,
      "byteOffset": 7088,
      "byteLength": 96,
      "target": 34962
    },
    {
      "buffer": 0,
      "byteOffset": 7184,
      "byteLength": 64,
      "target": 34962
    },
    {
      "buffer": 0,
      "byteOffset": 7248,
      "byteLength": 72,
      "target": 34963
    },
    {
      "buffer": 0,
      "byteOffset": 7320,
      "byteLength": 12
    },
    {
      "buffer": 0,
      "byteOffset": 7332,
      "byteLength": 36
    }
  ],
  "buffers": [
    {
      "byteLength": 7368,
      "uri": "data:application/octet-stream;base64,"
    }
  ]
}