{
  "asset": {
    "generator": "Khronos glTF Blender I/O v3.3.32",
    "version": "2.0"
  },
  "scene": 0,
  "scenes": [
    {
      "name": "Scene",
      "nodes": [
        0,
        1
      ]
    }
  ],
  "nodes": [
    {
      "mesh": 0,
      "name": "garden_gloves_01",
      "skin": 0
    },
    {
      "name": "Bone_Forearm_Wrist",
      "translation": [
        0.0,
        -0.15,
        0.0
      ],
      "children": [
        2
      ]
    },
    {
      "name": "Bone_Hand_Palm",
      "translation": [
        0.0,
        0.05,
        0.0
      ],
      "children": [
        3,
        5,
        7,
        8
      ]
    },
    {
      "name": "Bone_Thumb_Metacarpal",
      "translation": [
        -0.04,
        0.02,
        0.02
      ],
      "children": [
        4
      ]
    },
    {
      "name": "Bone_Thumb_Phalanx",
      "translation": [
        -0.02,
        0.04,
        0.02
      ]
    },
    {
      "name": "Bone_Index_Proximal",
      "translation": [
        -0.02,
        0.08,
        0.0
      ],
      "children": [
        6
      ]
    },
    {
      "name": "Bone_Index_Distal",
      "translation": [
        0.0,
        0.05,
        0.0
      ]
    },
    {
      "name": "Bone_Middle_Finger",
      "translation": [
        0.01,
        0.09,
        0.0
      ]
    },
    {
      "name": "Bone_Ring_Pinky_Group",
      "translation": [
        0.03,
        0.07,
        0.0
      ]
    }
  ],
  "materials": [
    {
      "doubleSided": true,
      "name": "garden_gloves_01",
      "normalTexture": {
        "index": 0
      },
      "pbrMetallicRoughness": {
        "baseColorTexture": {
          "index": 1
        },
        "metallicFactor": 0,
        "metallicRoughnessTexture": {
          "index": 2
        }
      }
    }
  ],
  "meshes": [
    {
      "name": "mesh.002",
      "primitives": [
        {
          "attributes": {
            "POSITION": 0,
            "NORMAL": 1,
            "TEXCOORD_0": 2
          },
          "indices": 3,
          "material": 0
        }
      ]
    }
  ],
  "textures": [
    {
      "sampler": 0,
      "source": 0
    },
    {
      "sampler": 0,
      "source": 1
    },
    {
      "sampler": 0,
      "source": 2
    }
  ],
  "images": [
    {
      "mimeType": "image/jpeg",
      "name": "garden_gloves_01_nor_gl",
      "uri": "textures/garden_gloves_01_nor_gl_1k.jpg"
    },
    {
      "mimeType": "image/jpeg",
      "name": "garden_gloves_01_diff",
      "uri": "textures/garden_gloves_01_diff_1k.jpg"
    },
    {
      "mimeType": "image/jpeg",
      "name": "garden_gloves_01_rough",
      "uri": "textures/garden_gloves_01_arm_1k.jpg"
    }
  ],
  "accessors": [
    {
      "bufferView": 0,
      "componentType": 5126,
      "count": 3975,
      "max": [
        0.11774531751871109,
        0.07592906057834625,
        0.17154379189014435
      ],
      "min": [
        -0.10881177335977554,
        -9.720027446746826e-05,
        -0.12749861180782318
      ],
      "type": "VEC3"
    },
    {
      "bufferView": 1,
      "componentType": 5126,
      "count": 3975,
      "type": "VEC3"
    },
    {
      "bufferView": 2,
      "componentType": 5126,
      "count": 3975,
      "type": "VEC2"
    },
    {
      "bufferView": 3,
      "componentType": 5123,
      "count": 20466,
      "type": "SCALAR"
    },
    {
      "bufferView": 4,
      "componentType": 5126,
      "count": 8,
      "type": "MAT4"
    },
    {
      "bufferView": 5,
      "componentType": 5126,
      "count": 5,
      "type": "SCALAR",
      "min": [
        0.0
      ],
      "max": [
        2.0
      ]
    },
    {
      "bufferView": 6,
      "componentType": 5126,
      "count": 5,
      "type": "VEC4"
    },
    {
      "bufferView": 7,
      "componentType": 5126,
      "count": 5,
      "type": "SCALAR",
      "min": [
        0.0
      ],
      "max": [
        4.0
      ]
    },
    {
      "bufferView": 8,
      "componentType": 5126,
      "count": 5,
      "type": "VEC4"
    }
  ],
  "bufferViews": [
    {
      "buffer": 0,
      "byteLength": 47700,
      "byteOffset": 0,
      "target": 34962
    },
    {
      "buffer": 0,
      "byteLength": 47700,
      "byteOffset": 47700,
      "target": 34962
    },
    {
      "buffer": 0,
      "byteLength": 31800,
      "byteOffset": 95400,
      "target": 34962
    },
    {
      "buffer": 0,
      "byteLength": 40932,
      "byteOffset": 127200,
      "target": 34963
    },
    {
      "buffer": 0,
      "byteOffset": 168132,
      "byteLength": 512
    },
    {
      "buffer": 0,
      "byteOffset": 168644,
      "byteLength": 20
    },
    {
      "buffer": 0,
      "byteOffset": 168664,
      "byteLength": 80
    },
    {
      "buffer": 0,
      "byteOffset": 168744,
      "byteLength": 20
    },
    {
      "buffer": 0,
      "byteOffset": 168764,
      "byteLength": 80
    }
  ],
  "samplers": [
    {
      "magFilter": 9729,
      "minFilter": 9987
    }
  ],
  "buffers": [
    {
      "byteLength": 168844,
      "uri": "garden_gloves_01.bin"
    }
  ],
  "skins": [
    {
      "name": "Armature_Investigator_Hand",
      "skeleton": 1,
      "joints": [
        1,
        2,
        3,
        4,
        5,
        6,
        7,
        8
      ],
      "inverseBindMatrices": 4
    }
  ],
  "animations": [
    {
      "name": "Anim_Flashlight_Grip",
      "samplers": [
        {
          "input": 5,
          "interpolation": "LINEAR",
          "output": 6
        }
      ],
      "channels": [
        {
          "sampler": 0,
          "target": {
            "node": 3,
            "path": "rotation"
          }
        },
        {
          "sampler": 0,
          "target": {
            "node": 5,
            "path": "rotation"
          }
        },
        {
          "sampler": 0,
          "target": {
            "node": 7,
            "path": "rotation"
          }
        }
      ]
    },
    {
      "name": "Anim_Tremble_Insanity",
      "samplers": [
        {
          "input": 7,
          "interpolation": "LINEAR",
          "output": 8
        }
      ],
      "channels": [
        {
          "sampler": 0,
          "target": {
            "node": 1,
            "path": "rotation"
          }
        },
        {
          "sampler": 0,
          "target": {
            "node": 2,
            "path": "rotation"
          }
        }
      ]
    }
  ]
}